<svg width="32" height="32" viewBox="0 0 32 32" fill="none" xmlns="http://www.w3.org/2000/svg">
<path d="M25.06 13.72C24.116 8.547 19.6 4.625 14.157 4.625V8.625C16.0376 8.62765 17.8405 9.3759 19.1703 10.7057C20.5001 12.0355 21.2484 13.8384 21.251 15.719C21.2478 17.5991 20.4995 19.4013 19.1699 20.7306C17.8404 22.06 16.0381 22.8081 14.158 22.811V26.813C19.6 26.809 24.118 22.887 25.061 17.717H29.751V13.717H25.061L25.06 13.72ZM20.375 15.72C20.3766 14.2461 19.8544 12.8197 18.9016 11.6952C17.9488 10.5707 16.6275 9.82132 15.1734 9.58079C13.7193 9.34026 12.2271 9.62424 10.963 10.382C9.69886 11.1398 8.74514 12.3222 8.272 13.718H1.438V17.718H8.272C8.74455 19.1144 9.69801 20.2974 10.9622 21.0558C12.2263 21.8142 13.7189 22.0987 15.1734 21.8583C16.6278 21.618 17.9496 20.8686 18.9026 19.7438C19.8556 18.6191 20.3778 17.1922 20.376 15.718L20.375 15.72Z" fill="white"/>
</svg>
