<svg width="20" height="15" viewBox="0 0 20 15" fill="none" xmlns="http://www.w3.org/2000/svg">
<g clip-path="url(#clip0_2_4)">
<path d="M18.75 12.5C19.0815 12.5 19.3995 12.3683 19.6339 12.1339C19.8683 11.8995 20 11.5815 20 11.25C20 10.9185 19.8683 10.6005 19.6339 10.3661C19.3995 10.1317 19.0815 10 18.75 10H15V12.5H18.75ZM13.75 14.375V0.625C13.75 0.45924 13.6842 0.300269 13.5669 0.183058C13.4497 0.065848 13.2908 0 13.125 0L11.875 0C11.7092 0 11.5503 0.065848 11.4331 0.183058C11.3158 0.300269 11.25 0.45924 11.25 0.625V1.25H10C8.55932 1.25022 7.16291 1.74793 6.04687 2.65898C4.93083 3.57004 4.16364 4.83853 3.875 6.25L-2.38419e-06 6.25V8.75H3.875C4.16364 10.1615 4.93083 11.43 6.04687 12.341C7.16291 13.2521 8.55932 13.7498 10 13.75H11.25V14.375C11.25 14.5408 11.3158 14.6997 11.4331 14.8169C11.5503 14.9342 11.7092 15 11.875 15H13.125C13.2908 15 13.4497 14.9342 13.5669 14.8169C13.6842 14.6997 13.75 14.5408 13.75 14.375ZM18.75 5C19.0815 5 19.3995 4.8683 19.6339 4.63388C19.8683 4.39946 20 4.08152 20 3.75C20 3.41848 19.8683 3.10054 19.6339 2.86612C19.3995 2.6317 19.0815 2.5 18.75 2.5H15V5H18.75Z" fill="white"/>
</g>
<defs>
<clipPath id="clip0_2_4">
<rect width="15" height="20" fill="white" transform="matrix(0 1 -1 0 20 0)"/>
</clipPath>
</defs>
</svg>
