<svg width="19" height="17" viewBox="0 0 19 17" fill="none" xmlns="http://www.w3.org/2000/svg">
<path d="M6 10C7.381 10 8.631 9.44 9.536 8.535C10.44 7.631 11 6.381 11 5C11 3.619 10.44 2.369 9.536 1.465C8.631 0.56 7.381 0 6 0C4.619 0 3.369 0.56 2.464 1.465C1.56 2.369 1 3.619 1 5C1 6.381 1.56 7.631 2.464 8.535C2.92781 9.00011 3.47897 9.36897 4.0858 9.62039C4.69262 9.8718 5.34315 10.0008 6 10ZM6 17C9.518 17 12 16 12 15C12 13 9.646 11 6 11C2.25 11 0 13 0 15C0 16 2.25 17 6 17ZM18 8H16V6C16 5.73478 15.8946 5.48043 15.7071 5.29289C15.5196 5.10536 15.2652 5 15 5C14.7348 5 14.4804 5.10536 14.2929 5.29289C14.1054 5.48043 14 5.73478 14 6V8H12C11.7348 8 11.4804 8.10536 11.2929 8.29289C11.1054 8.48043 11 8.73478 11 9C11 9.26522 11.1054 9.51957 11.2929 9.70711C11.4804 9.89464 11.7348 10 12 10H14V12C14 12.2652 14.1054 12.5196 14.2929 12.7071C14.4804 12.8946 14.7348 13 15 13C15.2652 13 15.5196 12.8946 15.7071 12.7071C15.8946 12.5196 16 12.2652 16 12V10H18C18.2652 10 18.5196 9.89464 18.7071 9.70711C18.8946 9.51957 19 9.26522 19 9C19 8.73478 18.8946 8.48043 18.7071 8.29289C18.5196 8.10536 18.2652 8 18 8Z" fill="white"/>
</svg>
