<svg viewBox="0 0 82 78" xmlns="http://www.w3.org/2000/svg">
<path fill-rule="evenodd" clip-rule="evenodd" d="M47.15 0C56.3928 0 65.257 3.6764 71.7927 10.2204C78.3283 16.7645 82 25.6401 82 34.8947C82 44.1494 78.3283 53.025 71.7927 59.569C65.257 66.1131 56.3928 69.7895 47.15 69.7895H45.1V73.8537C45.1 74.3985 44.9928 74.938 44.7844 75.4414C44.576 75.9447 44.2706 76.4019 43.8857 76.787C43.5007 77.1721 43.0437 77.4774 42.5409 77.6856C42.038 77.8937 41.4991 78.0005 40.9549 78C30.8689 77.9918 20.6517 74.6214 12.8986 67.7204C5.0758 60.7497 0.0082 50.3921 0 36.9843V34.8947C0 25.6401 3.67169 16.7645 10.2073 10.2204C16.743 3.6764 25.6072 0 34.85 0H47.15ZM26.65 28.7368C25.0189 28.7368 23.4546 29.3856 22.3013 30.5404C21.1479 31.6953 20.5 33.2616 20.5 34.8947C20.5 36.5279 21.1479 38.0942 22.3013 39.249C23.4546 40.4039 25.0189 41.0526 26.65 41.0526C28.2811 41.0526 29.8454 40.4039 30.9987 39.249C32.1521 38.0942 32.8 36.5279 32.8 34.8947C32.8 33.2616 32.1521 31.6953 30.9987 30.5404C29.8454 29.3856 28.2811 28.7368 26.65 28.7368ZM55.35 28.7368C53.7189 28.7368 52.1546 29.3856 51.0013 30.5404C49.8479 31.6953 49.2 33.2616 49.2 34.8947C49.2 36.5279 49.8479 38.0942 51.0013 39.249C52.1546 40.4039 53.7189 41.0526 55.35 41.0526C56.9811 41.0526 58.5454 40.4039 59.6987 39.249C60.8521 38.0942 61.5 36.5279 61.5 34.8947C61.5 33.2616 60.8521 31.6953 59.6987 30.5404C58.5454 29.3856 56.9811 28.7368 55.35 28.7368Z" fill="#0057FF"/>
</svg>
