<svg width="15" height="16" viewBox="0 0 15 16" fill="none" xmlns="http://www.w3.org/2000/svg">
<path d="M2.01376 1.65363L3.01811 1.08412C3.47525 0.824635 4.01119 0.740375 4.5259 0.84707C5.04061 0.953766 5.4989 1.24413 5.81522 1.66395L6.82496 3.00404C7.09703 3.36504 7.24923 3.80217 7.26022 4.25407C7.27122 4.70597 7.14045 5.14998 6.88626 5.52378L5.96219 6.88296C5.95077 6.89978 5.94254 6.91855 5.93788 6.93834C5.87206 7.21689 6.21048 7.84415 7.02408 8.72342C7.94155 9.71432 8.55241 10.0496 8.77238 9.92655L10.204 9.10637C10.5961 8.88203 11.0486 8.78602 11.4981 8.83179C11.9475 8.87756 12.3714 9.06282 12.7102 9.3616L13.9634 10.4654C14.3569 10.8121 14.6111 11.2897 14.6789 11.8096C14.7467 12.3296 14.6235 12.8564 14.3321 13.2924L13.6881 14.2547C13.4642 14.5896 13.1626 14.8655 12.809 15.0586C12.4554 15.2517 12.0604 15.3564 11.6576 15.3638C9.26554 15.4071 6.80153 14.0325 4.25716 11.2843C1.7117 8.53441 0.530173 5.96854 0.760762 3.58535C0.79935 3.18637 0.933409 2.80253 1.15161 2.46629C1.36981 2.13004 1.6651 1.8514 2.01376 1.65363ZM2.50802 2.52209C2.29881 2.64072 2.12123 2.80797 1.99028 3.0097C1.85933 3.21143 1.77886 3.44172 1.75567 3.68111C1.5568 5.73475 2.62012 8.04473 4.99084 10.6056C7.35982 13.1647 9.57897 14.4023 11.6403 14.3645C11.882 14.36 12.119 14.2971 12.3311 14.1812C12.5432 14.0652 12.7242 13.8997 12.8584 13.6987L13.502 12.7372C13.6589 12.5025 13.7254 12.2188 13.6889 11.9388C13.6525 11.6588 13.5156 11.4015 13.3038 11.2148L12.0505 10.1103C11.8681 9.94948 11.6399 9.84974 11.3979 9.82508C11.156 9.80041 10.9123 9.85206 10.7012 9.97279L9.26599 10.7952C8.47028 11.2428 7.50609 10.714 6.29154 9.40125C5.26292 8.29081 4.79735 7.4254 4.96655 6.70883C4.99929 6.57028 5.05691 6.43905 5.13669 6.32123L6.06076 4.96205C6.1977 4.76076 6.26816 4.52164 6.26226 4.27825C6.25636 4.03487 6.17439 3.79945 6.02786 3.60503L5.01762 2.26573C4.84728 2.03961 4.60046 1.88322 4.32325 1.82577C4.04604 1.76831 3.7574 1.81373 3.51122 1.95352L2.50802 2.52209Z" fill="#039C00"/>
</svg>
