<svg width="20" height="20" viewBox="0 0 20 20" fill="none" xmlns="http://www.w3.org/2000/svg">
<path d="M10.002 0C15.526 0 20.004 4.478 20.004 10.002C20.004 15.525 15.526 20.002 10.002 20.002C4.478 20.003 0 15.525 0 10.002C0 4.478 4.478 0 10.002 0ZM10.002 1.5C8.87781 1.48781 7.76236 1.6987 6.72022 2.12047C5.67808 2.54224 4.72993 3.16652 3.93066 3.95717C3.13139 4.74781 2.49687 5.68913 2.06382 6.72664C1.63077 7.76415 1.4078 8.87724 1.4078 10.0015C1.4078 11.1258 1.63077 12.2389 2.06382 13.2764C2.49687 14.3139 3.13139 15.2552 3.93066 16.0458C4.72993 16.8365 5.67808 17.4608 6.72022 17.8825C7.76236 18.3043 8.87781 18.5152 10.002 18.503C12.2408 18.4787 14.3796 17.5723 15.9541 15.9806C17.5287 14.3889 18.4118 12.2404 18.4118 10.0015C18.4118 7.7626 17.5287 5.61407 15.9541 4.02237C14.3796 2.43066 12.2408 1.52428 10.002 1.5ZM6.464 12.785C6.8849 13.3208 7.42216 13.7538 8.03512 14.0512C8.64808 14.3487 9.32067 14.5029 10.002 14.502C10.6826 14.5028 11.3545 14.349 11.9669 14.052C12.5793 13.7551 13.1162 13.3229 13.537 12.788C13.5981 12.7107 13.6738 12.6462 13.7597 12.5982C13.8457 12.5502 13.9403 12.5195 14.0382 12.5081C14.136 12.4966 14.2351 12.5045 14.3299 12.5313C14.4247 12.5582 14.5132 12.6034 14.5905 12.6645C14.6678 12.7256 14.7323 12.8013 14.7803 12.8872C14.8283 12.9732 14.859 13.0678 14.8704 13.1657C14.8819 13.2635 14.874 13.3626 14.8471 13.4574C14.8203 13.5522 14.7751 13.6407 14.714 13.718C14.1528 14.4306 13.4371 15.0065 12.6208 15.4022C11.8045 15.7978 10.9091 16.0029 10.002 16.002C9.09359 16.0029 8.19686 15.7972 7.37966 15.4005C6.56246 15.0037 5.84618 14.4263 5.285 13.712C5.22407 13.6346 5.17898 13.5459 5.15231 13.4511C5.12564 13.3562 5.11791 13.2571 5.12956 13.1593C5.14122 13.0614 5.17202 12.9669 5.22023 12.8809C5.26843 12.795 5.33309 12.7194 5.4105 12.6585C5.48791 12.5976 5.57657 12.5525 5.67141 12.5258C5.76625 12.4991 5.86542 12.4914 5.96324 12.5031C6.06107 12.5147 6.15564 12.5455 6.24156 12.5937C6.32748 12.6419 6.40307 12.7066 6.464 12.784M7.002 6.752C7.16906 6.74727 7.33537 6.7761 7.4911 6.83676C7.64683 6.89743 7.78881 6.98871 7.90865 7.1052C8.02848 7.2217 8.12374 7.36104 8.18879 7.51499C8.25384 7.66894 8.28735 7.83437 8.28735 8.0015C8.28735 8.16863 8.25384 8.33406 8.18879 8.48801C8.12374 8.64196 8.02848 8.7813 7.90865 8.89779C7.78881 9.01429 7.64683 9.10557 7.4911 9.16624C7.33537 9.2269 7.16906 9.25573 7.002 9.251C6.67673 9.2418 6.36787 9.10612 6.14106 8.8728C5.91424 8.63947 5.78735 8.3269 5.78735 8.0015C5.78735 7.6761 5.91424 7.36353 6.14106 7.13021C6.36787 6.89688 6.67673 6.7612 7.002 6.752ZM13.002 6.752C13.1691 6.74727 13.3354 6.7761 13.4911 6.83676C13.6468 6.89743 13.7888 6.98871 13.9086 7.1052C14.0285 7.2217 14.1237 7.36104 14.1888 7.51499C14.2538 7.66894 14.2874 7.83437 14.2874 8.0015C14.2874 8.16863 14.2538 8.33406 14.1888 8.48801C14.1237 8.64196 14.0285 8.7813 13.9086 8.89779C13.7888 9.01429 13.6468 9.10557 13.4911 9.16624C13.3354 9.2269 13.1691 9.25573 13.002 9.251C12.6767 9.2418 12.3679 9.10612 12.1411 8.8728C11.9142 8.63947 11.7874 8.3269 11.7874 8.0015C11.7874 7.6761 11.9142 7.36353 12.1411 7.13021C12.3679 6.89688 12.6767 6.7612 13.002 6.752Z" fill="#FF9900"/>
</svg>
