<svg width="24" height="24" viewBox="0 0 24 24" fill="none" xmlns="http://www.w3.org/2000/svg">
<path d="M20.927 9.99C14.317 9.082 8.617 13.99 9 20.5M6.5 8C6.5 8.53043 6.71071 9.03914 7.08579 9.41421C7.46086 9.78929 7.96957 10 8.5 10C9.03043 10 9.53914 9.78929 9.91421 9.41421C10.2893 9.03914 10.5 8.53043 10.5 8C10.5 7.46957 10.2893 6.96086 9.91421 6.58579C9.53914 6.21071 9.03043 6 8.5 6C7.96957 6 7.46086 6.21071 7.08579 6.58579C6.71071 6.96086 6.5 7.46957 6.5 8Z" stroke="#9E9E9E" stroke-width="1.5" stroke-linecap="round" stroke-linejoin="round"/>
<path d="M3 13.066C5.78 12.681 8.275 14.024 9.624 16.166" stroke="#9E9E9E" stroke-width="1.5" stroke-linecap="round" stroke-linejoin="round"/>
<path d="M3 12C3 7.757 3 5.636 4.318 4.318C5.636 3 7.758 3 12 3C16.243 3 18.364 3 19.682 4.318C21 5.636 21 7.758 21 12C21 16.243 21 18.364 19.682 19.682C18.364 21 16.242 21 12 21C7.757 21 5.636 21 4.318 19.682C3 18.364 3 16.242 3 12Z" stroke="#9E9E9E" stroke-width="1.5" stroke-linecap="round" stroke-linejoin="round"/>
</svg>
