<svg width="27" height="27" viewBox="0 0 27 27" fill="none" xmlns="http://www.w3.org/2000/svg">
<path d="M13.5 2.25C7.29 2.25 2.25 7.29 2.25 13.5C2.25 19.71 7.29 24.75 13.5 24.75C19.71 24.75 24.75 19.71 24.75 13.5C24.75 7.29 19.71 2.25 13.5 2.25ZM13.5 19.125C12.8813 19.125 12.375 18.6187 12.375 18V13.5C12.375 12.8813 12.8813 12.375 13.5 12.375C14.1187 12.375 14.625 12.8813 14.625 13.5V18C14.625 18.6187 14.1187 19.125 13.5 19.125ZM14.625 10.125H12.375V7.875H14.625V10.125Z" fill="#9E9E9E"/>
</svg>
