<svg width="30" height="30" viewBox="0 0 30 30" fill="none" xmlns="http://www.w3.org/2000/svg">
<g clip-path="url(#clip0_26_49)">
<path d="M28.5 0L20.625 7.875V5.625C20.625 2.4375 18.1875 0 15 0C11.8125 0 9.375 2.4375 9.375 5.625V13.125C9.375 14.8125 10.125 16.3125 11.25 17.25L9.75 18.75C8.4375 17.625 7.5 15.9375 7.5 14.0625V9.375C6.375 9.375 5.625 10.125 5.625 11.25V14.0625C5.625 16.5 6.75 18.5625 8.4375 20.0625L0 28.6875V30H1.3125L30 1.125V0H28.5ZM23.4375 9.5625L22.5 10.5V14.0625C22.5 17.625 19.125 20.625 15.375 20.625H14.625C14.0625 20.625 13.5 20.4375 12.9375 20.4375L11.25 21.75C11.8125 21.9375 12.375 22.125 13.125 22.3125V26.25C7.5 26.25 8.4375 30 8.4375 30H21.5625C21.5625 30 22.5 26.25 16.875 26.25V22.3125C21 21.5625 24.375 18.1875 24.375 14.0625V11.25C24.375 10.5 24 9.9375 23.4375 9.5625Z" fill="white"/>
<path d="M20.625 13.125V12.375L14.4375 18.75H15C18.1875 18.75 20.625 16.125 20.625 13.125Z" fill="white"/>
</g>
<defs>
<clipPath id="clip0_26_49">
<rect width="30" height="30" fill="white"/>
</clipPath>
</defs>
</svg>
