<svg width="13" height="13" viewBox="0 0 13 13" fill="none" xmlns="http://www.w3.org/2000/svg">
<path d="M11.8165 2.514C11.7679 2.45841 11.7082 2.41347 11.6414 2.38198C11.5745 2.35049 11.5019 2.33314 11.428 2.331C10.2805 2.301 8.82853 1.074 7.86853 0.592503C7.27553 0.296003 6.88403 0.100503 6.59003 0.0490033C6.53034 0.0403045 6.46968 0.040473 6.41003 0.0495033C6.11603 0.101003 5.72453 0.296503 5.13203 0.593003C4.17203 1.074 2.72003 2.301 1.57253 2.331C1.49862 2.33325 1.42595 2.35065 1.35904 2.38212C1.29212 2.4136 1.23239 2.45849 1.18353 2.514C1.08227 2.62857 1.03002 2.77831 1.03803 2.931C1.28453 7.9425 3.08203 11.044 6.23603 12.8465C6.31803 12.893 6.40903 12.917 6.49953 12.917C6.59003 12.917 6.68103 12.893 6.76353 12.8465C9.91753 11.044 11.7145 7.9425 11.9615 2.931C11.97 2.77833 11.9179 2.62848 11.8165 2.514ZM9.30853 4.485L6.64703 8.4125C6.55153 8.5535 6.40153 8.647 6.25303 8.647C6.10403 8.647 5.93853 8.5655 5.83403 8.461L3.95803 6.5845C3.89678 6.52303 3.86239 6.43978 3.86239 6.353C3.86239 6.26622 3.89678 6.18298 3.95803 6.1215L4.42153 5.657C4.48314 5.596 4.56633 5.56177 4.65303 5.56177C4.73973 5.56177 4.82293 5.596 4.88453 5.657L6.10453 6.877L8.22403 3.7485C8.27307 3.67691 8.34845 3.62763 8.4337 3.61143C8.51895 3.59522 8.60714 3.6134 8.67903 3.662L9.22153 4.03C9.29321 4.07897 9.34259 4.1543 9.35889 4.23956C9.37519 4.32481 9.35709 4.41305 9.30853 4.485Z" fill="#0057FF"/>
</svg>
