<svg width="30" height="30" viewBox="0 0 30 30" fill="none" xmlns="http://www.w3.org/2000/svg">
<g clip-path="url(#clip0_26_42)">
<path d="M25.002 15C25.002 10.8398 22.459 7.27734 18.8496 5.77148L17.8887 8.08008C20.5957 9.21094 22.5 11.8828 22.5 15C22.5 18.123 20.5957 20.7891 17.8828 21.9199L18.8438 24.2285C22.459 22.7227 25.002 19.1602 25.002 15ZM19.998 15C19.998 12.9199 18.7266 11.1387 16.9219 10.3887L15.9609 12.6973C16.8633 13.0723 17.4961 13.9629 17.4961 15.0059C17.4961 16.043 16.8633 16.9336 15.9609 17.3145L16.9219 19.623C18.7266 18.8613 19.998 17.0801 19.998 15ZM20.7715 1.1543L19.8047 3.46289C24.3223 5.34375 27.498 9.79688 27.498 15C27.498 20.1973 24.3223 24.6562 19.8047 26.5371L20.7656 28.8457C26.1914 26.584 30 21.2402 30 15C30 8.75977 26.1914 3.41602 20.7715 1.1543ZM0 8.74805V21.2461H4.99805L13.752 30V0L4.99805 8.74805H0Z" fill="white"/>
</g>
<defs>
<clipPath id="clip0_26_42">
<rect width="30" height="30" fill="white"/>
</clipPath>
</defs>
</svg>
