<svg width="30" height="21" viewBox="0 0 30 21" fill="none" xmlns="http://www.w3.org/2000/svg">
<path fill-rule="evenodd" clip-rule="evenodd" d="M4.5 0C3.30653 0 2.16193 0.474106 1.31802 1.31802C0.474106 2.16193 0 3.30653 0 4.5V16.5C0 17.6935 0.474106 18.8381 1.31802 19.682C2.16193 20.5259 3.30653 21 4.5 21H19.5C20.6935 21 21.8381 20.5259 22.682 19.682C23.5259 18.8381 24 17.6935 24 16.5V14.121L27.4395 17.5605C27.6493 17.7702 27.9165 17.913 28.2075 17.9709C28.4984 18.0287 28.7999 17.999 29.074 17.8855C29.348 17.772 29.5823 17.5798 29.7471 17.3332C29.9119 17.0866 29.9999 16.7966 30 16.5V4.5C29.9999 4.20337 29.9119 3.91343 29.7471 3.66681C29.5823 3.4202 29.348 3.22799 29.074 3.11448C28.7999 3.00098 28.4984 2.97127 28.2075 3.02912C27.9165 3.08698 27.6493 3.22979 27.4395 3.4395L24 6.879V4.5C24 3.30653 23.5259 2.16193 22.682 1.31802C21.8381 0.474106 20.6935 0 19.5 0H4.5Z" fill="white"/>
</svg>
